HIERARCHY
ROOT Hips
{
	OFFSET -3.958830 18.904000 13.208200
	CHANNELS 6 Xposition Yposition Zposition Zrotation Yrotation Xrotation 
	JOINT LHipJoint
	{
		OFFSET 0.000000 0.000000 0.000000
		CHANNELS 3 Zrotation Yrotation Xrotation
		JOINT LeftUpLeg
		{
			OFFSET 1.800000 -1.400000 0.085000
			CHANNELS 3 Zrotation Yrotation Xrotation
			JOINT LeftLeg
			{
				OFFSET 2.215000 -6.000000 0.000000
				CHANNELS 3 Zrotation Yrotation Xrotation
				JOINT LeftFoot
				{
					OFFSET 2.500000 -6.900000 0.000000
					CHANNELS 3 Zrotation Yrotation Xrotation
					JOINT LeftToeBase
					{
						OFFSET 0.200000 -0.500000 1.950000
						CHANNELS 3 Zrotation Yrotation Xrotation
						End Site
						{
							OFFSET 0.000000 0.000000 0.000000
						}
					}
				}
			}
		}
	}
	JOINT RHipJoint
	{
		OFFSET 0.000000 0.000000 0.000000
		CHANNELS 3 Zrotation Yrotation Xrotation
		JOINT RightUpLeg
		{
			OFFSET -1.800000 -1.400000 0.085000
			CHANNELS 3 Zrotation Yrotation Xrotation
			JOINT RightLeg
			{
				OFFSET -2.215000 -6.000000 0.000000
				CHANNELS 3 Zrotation Yrotation Xrotation
				JOINT RightFoot
				{
					OFFSET -2.500000 -6.900000 0.000000
					CHANNELS 3 Zrotation Yrotation Xrotation
					JOINT RightToeBase
					{
						OFFSET -0.200000 -0.500000 1.950000
						CHANNELS 3 Zrotation Yrotation Xrotation
						End Site
						{
							OFFSET 0.000000 0.000000 0.000000
						}
					}
				}
			}
		}
	}
	JOINT LowerBack
	{
		OFFSET 0.000000 0.000000 0.000000
		CHANNELS 3 Zrotation Yrotation Xrotation
		JOINT Spine
		{
			OFFSET -0.087000 1.940000 -0.288900
			CHANNELS 3 Zrotation Yrotation Xrotation
			JOINT Spine1
			{
				OFFSET 0.000000 1.950000 0.060000
				CHANNELS 3 Zrotation Yrotation Xrotation
				JOINT Neck
				{
					OFFSET 0.000000 0.000000 0.000000
					CHANNELS 3 Zrotation Yrotation Xrotation
					JOINT Neck1
					{
						OFFSET 0.000000 1.600000 0.340000
						CHANNELS 3 Zrotation Yrotation Xrotation
						JOINT Head
						{
							OFFSET 0.000000 1.667000 -0.240000
							CHANNELS 3 Zrotation Yrotation Xrotation
							End Site
							{
								OFFSET 0.000000 0.000000 0.000000
							}
						}
					}
				}
				JOINT LeftShoulder
				{
					OFFSET 0.000000 0.000000 0.000000
					CHANNELS 3 Zrotation Yrotation Xrotation
					JOINT LeftArm
					{
						OFFSET 2.700000 1.550000 -0.730000
						CHANNELS 3 Zrotation Yrotation Xrotation
						JOINT LeftForeArm
						{
							OFFSET 5.450000 0.000000 0.000000
							CHANNELS 3 Zrotation Yrotation Xrotation
							JOINT LeftHand
							{
								OFFSET 3.450000 0.000000 0.000000
								CHANNELS 3 Zrotation Yrotation Xrotation
								JOINT LeftHandIndex1
								{
									OFFSET 0.750000 0.000000 0.000000
									CHANNELS 3 Zrotation Yrotation Xrotation
									End Site
									{
										OFFSET 0.000000 0.000000 0.000000
									}
								}
							}
						}
					}
				}
				JOINT RightShoulder
				{
					OFFSET 0.000000 0.000000 0.000000
					CHANNELS 3 Zrotation Yrotation Xrotation
					JOINT RightArm
					{
						OFFSET -2.700000 1.550000 -0.730000
						CHANNELS 3 Zrotation Yrotation Xrotation
						JOINT RightForeArm
						{
							OFFSET -5.450000 0.000000 0.000000
							CHANNELS 3 Zrotation Yrotation Xrotation
							JOINT RightHand
							{
								OFFSET -3.450000 0.000000 0.000000
								CHANNELS 3 Zrotation Yrotation Xrotation
								JOINT RightHandIndex1
								{
									OFFSET -0.750000 0.000000 0.000000
									CHANNELS 3 Zrotation Yrotation Xrotation
									End Site
									{
										OFFSET 0.000000 0.000000 0.000000
									}
								}
							}
						}
					}
				}
			}
		}
	}
}
MOTION
Frames: 14
Frame Time: 0.016667
-0.449870 17.342110 -7.816930 -4.440553 -4.249083 11.375012 -14.921977 11.608838 3.085375 3.601370 -2.409946 -17.206653 -9.949712 3.259262 -0.901133 -0.070474 3.209821 3.822497 -0.012410 -0.175940 -0.213700 18.628608 -10.813109 3.630839 0.302675 1.626242 -12.083126 14.645945 -2.851369 -4.990378 -0.082062 -3.893692 3.374746 -0.078700 0.672010 0.277960 -4.391668 1.414068 -7.835551 10.846846 1.147986 4.201319 -2.386063 1.228803 -2.299434 2.498322 4.211250 -9.591420 7.412467 -15.509089 25.696071 -13.894910 -9.669540 15.689580 -2.518090 2.997298 1.686184 -25.839973 10.092613 -5.201145 115.810734 -19.066940 -25.730692 -4.167772 3.571255 -0.271060 0.573770 -0.387010 0.373970 -4.213744 -2.426700 6.528130 24.343981 -4.905243 -9.715227 -118.858566 3.947306 -9.647380 2.429830 -2.673774 -0.047920 0.110100 0.005870 0.196120 
-0.461020 17.350370 -7.832760 -4.595068 -4.203203 10.824405 -14.928714 11.709207 3.127281 4.020412 -2.374023 -17.216966 -10.252855 3.418302 -0.373650 -0.004485 3.239297 3.810869 -0.036030 -0.195180 -0.235030 18.588046 -10.897472 3.593389 0.632483 1.589636 -12.411731 14.146935 -3.105041 -3.472735 -0.051250 -3.808657 3.412390 -0.116370 0.681540 0.294660 -4.311073 1.377569 -7.881253 10.576571 1.186072 4.739473 -2.158600 1.421635 -3.149257 2.578349 4.483609 -10.043636 7.838486 -15.202974 26.534447 -14.044340 -9.207810 17.194580 -3.134108 2.212567 1.863760 -25.433551 8.353511 -4.384221 115.651759 -19.299821 -25.849855 -4.167126 3.574592 -0.299820 0.583100 -0.381600 0.382720 -3.879843 -1.578040 6.918405 24.490403 -4.416369 -9.547983 -118.314434 4.155457 -9.956512 2.447030 -2.662924 -0.017950 0.087620 0.004910 0.220030 
-0.468410 17.351060 -7.848150 -4.305147 -3.871167 9.738464 -14.929727 11.850734 3.130515 3.747248 -2.311333 -16.918436 -9.998975 3.592022 0.616365 -0.005177 3.220035 3.818901 -0.058540 -0.222730 -0.259980 18.549666 -11.022268 3.520740 0.289459 1.518449 -12.868192 14.014351 -3.568822 -0.931411 -0.006179 -3.764142 3.427010 -0.130660 0.686360 0.272700 -4.250624 1.330469 -7.860235 10.121825 1.194686 5.521090 -2.163980 1.607442 -2.661820 2.556101 4.503114 -10.496005 7.838142 -14.874390 27.040858 -12.952940 -9.684160 18.063780 -2.500322 1.645215 2.240482 -26.385310 5.466775 -3.565339 114.311629 -20.964292 -28.036083 -4.143052 3.532737 -0.297970 0.575990 -0.400120 0.377000 -4.411277 -0.932752 7.270287 24.862413 -3.981757 -9.679881 -117.108677 4.855088 -11.177240 2.452606 -2.648076 -0.030530 0.082990 0.012520 0.219560 
-0.467770 17.360540 -7.863680 -4.288007 -3.971882 8.713761 -14.930190 11.937654 3.050673 3.743469 -2.192990 -16.754023 -9.476490 3.798728 2.052872 0.026703 3.180762 3.826862 -0.054760 -0.203950 -0.295430 18.539189 -11.106409 3.481626 0.119602 1.361317 -12.610503 13.923461 -3.828026 0.281519 0.008908 -3.843102 3.399782 -0.126560 0.697740 0.289140 -4.233454 1.336495 -7.761542 9.883050 1.431124 5.638540 -1.571272 1.770984 -0.726255 2.543588 4.402903 -11.011131 7.746661 -14.518139 26.608900 -12.176550 -9.831630 19.147540 -1.874951 0.133889 2.852058 -27.206574 2.882705 -3.482904 112.640032 -21.486269 -28.971405 -4.136582 3.593205 -0.350440 0.595130 -0.420360 0.398990 -4.764762 0.581172 7.631523 24.072924 -3.264684 -10.081396 -115.017110 4.798769 -11.636764 2.470474 -2.701929 -0.001080 0.033580 -0.005340 0.248150 
-0.465190 17.382630 -7.890360 -4.763180 -4.637656 7.287763 -14.894820 12.062577 2.976346 4.104923 -1.935404 -16.031243 -8.744521 3.953996 3.282300 0.019254 3.139337 3.817924 0.017970 -0.105430 -0.260650 18.551780 -11.239714 3.457944 0.591978 1.183217 -12.080688 13.185862 -4.062157 1.864864 -0.017387 -3.821168 3.399791 -0.077080 0.658670 0.274420 -4.288828 1.377177 -7.721621 10.710968 1.477064 6.653961 -1.561570 1.997107 1.114721 2.776570 4.330933 -11.190689 7.661558 -13.300228 27.599730 -10.137270 -9.848990 17.033280 -1.187752 -0.306384 2.899805 -27.445663 0.530980 -3.144355 110.415571 -22.824137 -30.110656 -4.077596 3.585732 -0.325070 0.551220 -0.382100 0.417580 -5.631774 1.162070 7.831524 23.642921 -0.278656 -9.429472 -112.702413 5.690703 -13.416102 2.466046 -2.670930 0.017370 0.038390 -0.049070 0.251010 
-0.463870 17.396130 -7.920650 -4.447220 -4.722907 5.869830 -14.897075 12.173048 2.931623 3.829136 -1.827021 -15.559936 -8.324064 4.120320 4.591587 -0.027658 3.123451 3.796590 0.075430 -0.042590 -0.235190 18.533733 -11.275584 3.452084 -0.018521 0.943679 -11.208032 13.147762 -4.181580 2.130184 -0.067398 -3.863358 3.367493 -0.035790 0.613340 0.247570 -4.256776 1.242279 -7.724293 10.366006 1.323154 7.896659 -1.408472 2.010065 2.736677 2.658025 4.128308 -11.324955 7.207651 -12.282193 28.879488 -7.534110 -10.514000 14.536080 -0.053456 -0.600290 2.989491 -26.751172 -1.024082 -2.917832 108.081938 -24.473804 -31.379382 -4.010188 3.551936 -0.255200 0.488750 -0.348370 0.417770 -6.195124 1.523808 7.945206 22.503415 1.374931 -8.892536 -109.970910 8.028275 -16.538186 2.434483 -2.598792 0.008060 0.055880 -0.063630 0.230440 
-0.475510 17.403600 -7.954590 -3.966200 -5.908056 4.976789 -14.928713 12.217542 2.873620 3.335670 -1.783948 -15.374026 -7.762596 4.177090 5.605463 -0.041381 3.046610 3.789807 0.155870 0.046480 -0.167410 18.507474 -11.245073 3.470513 -0.706898 0.799164 -10.461697 13.627698 -4.162350 1.469158 -0.135518 -3.924852 3.320072 0.003240 0.541230 0.245680 -4.162839 1.122916 -7.691993 9.128923 1.728664 8.600616 -0.654655 2.333635 4.660540 2.677790 4.151467 -11.504051 7.204206 -11.131495 30.109783 -5.974540 -9.856500 12.522220 1.087748 -0.666430 3.224620 -25.944744 -0.971507 -3.175766 106.232854 -26.736672 -33.418667 -3.939770 3.549121 -0.208300 0.431070 -0.291460 0.420270 -6.916709 1.548385 8.005258 21.184643 2.660210 -8.141320 -107.728618 11.305408 -20.656396 2.419888 -2.551870 0.032430 0.033700 -0.113060 0.213410 
-0.470510 17.405100 -7.993160 -4.589894 -6.328542 3.870255 -14.917765 12.416840 2.821523 3.861555 -1.608747 -15.300013 -6.782684 4.231926 6.887762 -0.064349 3.030344 3.723154 0.204690 0.085450 -0.131590 18.499708 -11.234080 3.478656 0.151906 0.802032 -10.158731 12.965407 -4.255797 2.228688 -0.184020 -3.826134 3.309003 -0.012880 0.474020 0.309900 -4.157495 0.784232 -7.723200 10.202795 1.361732 10.073129 -0.875477 2.227313 6.434926 2.831297 3.956598 -11.681722 6.670752 -9.633836 32.050312 -4.203230 -9.066570 9.619340 2.025241 -0.832862 3.553673 -24.229442 -0.150152 -3.509895 104.307706 -29.646042 -36.161749 -3.920539 3.548412 -0.142990 0.381500 -0.223860 0.381940 -7.892925 1.477040 8.021532 19.052912 2.746596 -7.571049 -105.087408 16.438759 -26.000583 2.371686 -2.449915 0.098350 -0.017680 -0.082800 0.189380 
-0.466030 17.410290 -8.037810 -4.838667 -7.331831 2.485990 -14.951268 12.681196 2.842556 4.266128 -1.439795 -15.034913 -6.446467 4.413974 8.101382 -0.119404 3.102174 3.643440 0.266610 0.136330 -0.044300 18.431042 -11.233364 3.419447 0.780106 0.768660 -9.952263 11.630540 -4.476384 4.417299 -0.213420 -3.682095 3.316800 0.006410 0.389020 0.324190 -3.982647 0.309544 -7.774213 10.293584 1.235275 12.820574 -0.683487 2.508632 7.267036 3.192762 3.727953 -11.435719 6.046446 -8.505132 33.902069 -3.405150 -7.848560 5.368080 2.396528 0.246864 3.227059 -20.861360 0.666335 -2.897366 103.000808 -34.711020 -40.792628 -3.874986 3.423277 -0.042470 0.315510 -0.149890 0.336780 -8.719649 0.561030 7.762656 15.914825 1.968420 -6.614708 -103.369738 23.469583 -32.765526 2.309884 -2.285625 0.109350 -0.015540 -0.077920 0.134960 
-0.464420 17.406080 -8.100620 -4.799254 -8.666407 0.624506 -14.972353 12.927164 2.823809 4.524999 -1.233875 -14.471160 -6.155981 4.733166 9.956294 -0.181266 3.259791 3.557426 0.325190 0.186980 0.041700 18.382506 -11.210126 3.377571 0.932766 0.805022 -9.738923 11.122226 -4.745633 6.404277 -0.253988 -3.617246 3.310192 0.041880 0.335960 0.317430 -3.856396 -0.159614 -7.791731 10.085402 0.974536 15.905585 -0.906993 2.620024 9.326716 3.380402 3.023048 -10.963439 4.570953 -6.593411 36.287545 -2.370060 -6.098240 0.776590 4.163449 1.948006 2.829216 -17.092776 1.240274 -2.187905 101.477628 -40.831591 -46.208485 -3.838909 3.234108 0.061280 0.261370 -0.089250 0.304520 -10.517225 -0.681435 7.292002 12.803336 2.349102 -5.401806 -101.518453 31.333211 -39.868937 2.233857 -2.086159 0.088140 0.030000 -0.076260 0.080310 
-0.456910 17.391400 -8.171240 -5.083770 -11.684424 -0.913061 -14.960627 13.145749 2.810985 5.235739 -0.972179 -14.054681 -6.245402 5.133076 11.525234 -0.243506 3.453763 3.463418 0.360930 0.223670 0.116430 18.374993 -11.183115 3.336056 1.668914 0.745187 -9.169714 9.635726 -4.815114 8.234337 -0.287791 -3.506777 3.334679 0.073590 0.284380 0.271670 -3.814554 -0.605520 -7.786437 10.775772 1.170785 18.123253 -1.512707 3.257588 12.031985 3.436859 1.184046 -10.728434 0.640980 -3.784812 40.250441 -1.925680 -3.943900 -3.383420 4.773401 2.393630 3.165776 -11.853046 4.403849 -1.528851 102.424463 -47.301285 -53.902133 -3.770051 2.939821 0.177580 0.196680 -0.032290 0.266820 -11.102244 -0.106736 6.603922 5.703258 -0.084713 -4.664951 -99.530674 40.469961 -46.426037 2.122295 -1.760676 0.040150 0.109140 -0.069240 0.022290 
-0.451930 17.386640 -8.243300 -5.034410 -13.082577 -3.176661 -14.945294 13.386393 2.780386 5.490299 -0.758111 -13.679361 -5.905768 5.655147 14.588863 -0.246732 3.687794 3.326304 0.413990 0.291970 0.185780 18.356830 -11.224207 3.286211 2.096566 0.800983 -8.896576 8.315867 -5.107918 11.316110 -0.362955 -3.490788 3.321730 0.078950 0.204910 0.294210 -3.775550 -0.957730 -7.755304 11.246324 1.042110 21.481350 -2.818246 3.801197 14.637361 3.563108 0.295238 -11.179643 -1.621807 -1.380424 43.736596 -2.456800 -1.233930 -8.017590 5.385807 1.739866 3.855525 -5.443156 7.207321 -0.104468 109.339721 -52.601265 -67.728010 -3.732760 2.767122 0.287990 0.134000 0.076550 0.247810 -12.077239 0.789911 6.696109 1.612766 -3.945156 -4.263557 -102.807914 47.823777 -56.404502 2.022975 -1.441067 0.060420 0.125940 -0.077490 -0.010750 
-0.452350 17.376610 -8.288770 -5.302025 -13.446538 -4.193924 -14.876589 13.440502 2.734640 5.759171 -0.764843 -14.227313 -5.366198 5.916444 16.748316 -0.349229 3.897288 3.219984 0.381030 0.221340 0.208740 18.416537 -11.289752 3.260669 2.591916 1.007453 -9.296473 7.367836 -5.272652 13.586957 -0.368363 -3.495732 3.297093 0.057810 0.204770 0.292360 -3.959433 -0.954322 -7.662778 12.548803 0.694038 21.994394 -4.387905 3.884765 17.289343 3.473891 -1.142146 -11.982849 -5.134655 1.380197 47.666295 -3.032930 0.556110 -9.550650 7.207711 1.578748 4.909788 -2.218612 8.207306 1.938755 118.823577 -56.033893 -84.671185 -3.831192 2.815405 0.390920 0.122440 0.087350 0.185110 -13.752754 1.444109 7.129038 -0.928785 -5.003314 -2.971341 -107.204697 53.853017 -67.476801 1.918695 -1.076516 0.000400 0.173790 -0.003880 -0.070220 
-0.443470 17.365220 -8.316900 -4.657799 -12.918619 -5.144206 -14.848308 13.479637 2.731258 4.695497 -0.996877 -14.474274 -4.598891 5.952403 18.548729 -0.514566 4.009003 3.106284 0.416190 0.208580 0.305450 18.454067 -11.303914 3.152821 1.871066 1.161963 -9.879627 6.897940 -5.466530 15.563702 -0.405253 -3.473933 3.225847 0.085510 0.111970 0.272380 -4.076537 -1.084199 -7.495939 12.955620 0.351809 21.058555 -5.596224 3.654231 20.218941 3.256574 -2.738065 -13.182178 -10.441884 5.457019 55.256273 -1.985210 1.877810 -13.035010 7.525493 -0.491714 6.127701 1.742809 9.198770 3.763667 132.766796 -58.426031 -106.713741 -3.844509 3.025304 0.573560 0.031070 0.152510 0.093810 -13.532039 3.804791 7.569749 -7.021673 -5.402742 -0.755636 -110.641076 61.493969 -79.859581 1.819353 -0.386124 -0.066210 0.212740 0.046820 -0.169700 
